<svg xmlns="http://www.w3.org/2000/svg" width="586" height="599" viewBox="0 0 586 599"><title>Ouroboros by Abake</title><g fill="none" stroke="#000" stroke-width="1.2"><path stroke-width="2.04" d="M279.966 42.842s-9.916 1.134-21.816 5.384c-8.386 2.994-15.497 6.56-23.814 9.505-3.486 1.234-6.757 2.788-11.107 3.458-14.734 2.266-42.997 2.903-49.229 1.77-2.026-.368-5.185-2.137-7.754-3.117-2.053-.782-3.728-.85-4.146-.85-4.25 0-5.1 3.116-5.1 4.816 0 1.7 7.732 7.853 12.466 8.784 8.997 1.772 33.716 2.266 41.934 2.266 8.216 0 27.2-.282 31.166.568 3.966.85 19.832 11.616 26.916 14.45 7.084 2.832 19.834 11.332 24.934 12.75 5.1 1.416 18.984 7.65 17.566 11.332-1.416 3.684-8.782-1.7-8.782-1.7M253.05 76.842c4.25 3.4 24.934 16.434 32.3 17.284"/><path stroke-width="2.04" d="M262.116 77.408c2.834 3.4 9.35 7.65 14.734 8.5 5.382.85 9.066 0 12.466.85 3.4.85 12.182 3.967 24.65 3.4 12.466-.566 9.066 5.95 9.066 5.95M291.866 91.858s16.152 15.017 28.618 13.317M259 68.058c4.25 1.7 12.466-5.1 19.266-5.383 6.8-.283 8.218 9.633 11.334 10.767 3.116 1.133 7.652-.85 11.334-.284 3.682.567 9.066 5.384 9.066 5.384"/><path stroke-width="2.04" d="M266.932 66.642s-1.135 10.766 11.334 10.766c1.982 0 6.8-1.7 6.8-1.7s2.55.568 4.532-2.266M268.632 58.142s7.791-4.534 13.175-2.266c5.384 2.266 9.066 10.341 14.734 11.475 5.666 1.132 9.491-.993 12.891 4.532M168.475 72.875s-3.188 9.137 21.037 12.75c24.225 3.612 36.975 2.762 46.75 5.1 9.775 2.337 30.6 8.5 40.588 12.112 9.987 3.613 14.91 7.121 14.237 9.138-.105.32-28.775 2.849-51.637 4.25-32.938 2.02-50.362 12.962-50.362 12.962s18.067-3.966 32.724-1.805c13.708 2.018 16.683 15.087 28.9 14.662"/><path stroke-width="2.04" d="M237.113 127.274c4.144 1.7 9.265 14.532 16.575 15.938 5.525 1.063 8.182-1.7 8.182-1.7"/><path stroke-width="2.04" d="M251.775 129.294c3.4 2.763 5.144 13.697 16.15 12.963 4.782-.318 5.42-2.55 5.42-2.55"/><path stroke-width="2.04" d="M261.02 130.462c3.507 1.382 4.214 5.035 8.712 7.97 2.445 1.592 7.97 2.23 12.007-1.488M268.67 129.187c2.975.213 8.82 12.113 20.187 5.207"/><path stroke-width="2.04" d="M276.32 128.02c2.87.531 11.9 9.774 17.532 5.206 2.344-1.904 2.762-5.207 2.762-5.207"/><path stroke-width="2.04" d="M282.907 123.982c2.445.957 6.057 4.357 10.945 4.25 8.31-.18 8.925-5.42 8.925-5.42M301.075 126s11.582 5.95 19.125-3.295"/><path stroke-width="2.04" d="M311.17 121.857c4.675-.85 11.05.107 18.062 5.312 7.013 5.207 13.6 2.975 13.6 2.975"/><path stroke-width="2.04" d="M336.35 126.85c3.082.212 6.482 3.294 13.6 7.437 7.12 4.145 9.032 1.275 13.388 3.72 4.357 2.443 7.7 5.047 11.157 4.887 4.568-.212 6.587-4.25 6.587-4.25M321.475 79.675s13.707 1.912 12.963 9.032c-.266 2.534-3.825 5.1-3.825 5.1M331.887 67.67c.32 2.124 5.525 4.887 5.633 6.906.105 2.018-3.508 3.4-3.508 3.4M335.925 65.933c1.984-1.133 7.225-2.69 6.234-5.525-.991-2.833-8.641-4.39-13.6-7.79M342.443 57.15c4.25 3.824 21.675 8.924 21.675 12.183 0 3.258-10.343 6.375-13.884 3.4M364.118 69.333c3.257.85 12.04 3.26 15.866 7.792M355.618 86.617c1.132 2.975 8.923 5.1 9.207 7.225.284 2.125-.991 5.1-.991 5.1M374.741 83.074c-.141 1.275 4.609 5.939 4.959 8.217.566 3.683-3.541 8.075-3.541 8.075M336.632 92.567s8.782 4.957 7.225 8.641c-1.557 3.684-3.775 1.913-4.957 3.684-.85 1.275.141 2.975.141 2.975M332.1 106.024s.564-3.825 4.957-3.54M349.382 98.8s10.2 2.55 8.5 11.758M363.266 105.316s10.408-1.092 11.9 5.95c.991 4.675-7.366 5.808-7.366 7.933"/><path stroke-width="2.04" d="M374.882 110.133s5.95 4.675 11.9 2.692c5.95-1.983 3.4-8.075 4.25-9.208"/><path stroke-width="2.04" d="M390.607 108.716s5.95 7.084 13.46 3.54c7.508-3.54 4.958-11.615 4.958-11.615"/><path stroke-width="2.04" d="M409.591 104.608s6.25 8.397 15.016 4.96c7.225-2.835 1.843-13.6 1.843-13.6M260.912 47.375s.425-10.838-4.675-17.85c-2.502-3.441-3.488-7.028-3.529-9.74-.013-.931-.624-2.079-.437-2.762.376-1.382 2.19-1.687 2.691-1.736 2.125-.212 11.05 7.013 16.47 13.068 5.418 6.057 11.475 13.6 11.475 13.6"/><path stroke-width="2.04" d="M281.42 42.382s3.932 2.657 5.312-1.913c1.382-4.57-4.355-14.132-5.525-19.87-.73-3.585-1.54-5.664-1.31-6.87.135-.722 1.09-1.06 1.415-1.417 1.17-1.275 25.82 17.107 28.052 31.982"/><path stroke-width="2.04" d="M299.8 42.912c2.02 1.807 7.757 2.763 11.582 1.913 3.825-.85 12.538.425 21.568 7.757"/><path stroke-width="2.04" d="M311.382 44.824s3.295-4.357 2.232-9.457c-1.062-5.1-2.87-10.2-2.339-13.387.248-1.483.165-3.086.64-4.002.541-1.054 1.689-1.31 2.655-1.31 1.807 0 12.897 10.412 16.47 19.231 3.612 8.925 3.505 19.338 3.505 19.338"/><path stroke-width="2.04" d="M318.5 36.608s3.543-.425 5.384 2.41c1.841 2.832.85 6.8 1.7 8.64M290.591 32.925s3.966-2.41 6.8 1.7c2.834 4.108 5.384 9.633 8.641 10.34M256.591 24.425s13.032 2.266 14.591 19.55M399.534 94.408s7.133 8.327 15.016 3.4c4.534-2.833 1.134-7.083 1.134-7.083M388.413 80.1s5.95 1.912 7.437 7.012M384.8 113.25s8.075 7.437-3.932 14.025M387.032 117.182s7.545 4.357 12.538 1.275M403.075 115.587s2.657 8.5-2.657 8.925M406.9 120.794c1.488 2.338 12.645 3.932 11.795 9.138-.85 5.207-7.12 6.375-7.12 6.375M404.032 135.562s2.125 6.375 6.163 8.182"/><path stroke-width="2.04" d="M414.87 125.15s5.1-.95 5.1-8.5c0-1.595.85-2.763.85-2.763M424.857 123.875s5.525 4.675 11.263 1.487c5.737-3.187 2.125-7.12 2.337-9.775.213-2.657-5.843-6.695-5.843-6.695M438.457 115.587s2.657 1.382 6.482-2.445M443.45 126s8.5 6.27 14.237 2.02c5.738-4.253.425-12.115.425-12.115M418.693 129.932s5.1 7.437 10.732 6.907c5.63-.532 5.738-3.188 5.738-3.188M426.343 136.837s1.7 4.037.425 7.013M427.087 141.832s3.083 1.275 6.695-2.55M430.17 141.725s2.762 10.307 13.92 4.144M446.743 141.194s7.012-.637 6.162-11.475M453.543 142.257s7.862 6.27 13.707 1.807c5.843-4.465 1.168-12.857-2.445-14.345M379.984 141.017s15.159 9.632 22.525 16.716c7.366 7.084 8.214 6.375 10.907 7.225M412.425 162.55s3.283 2.41 8.641 1.416c3.825-.708 5.384-3.825 5.384-3.825M422.625 150.65s.284 2.408 2.55 3.116M442.318 146.967s-.425 3.966 2.975 6.091M443.309 151.642s-3.257 5.1-10.766 2.41M428.293 168.074s11.614 3.4 11.332-8.358M435.093 168.358s1.698 7.934-8.218 8.784M440.759 168.217s12.891 3.825 12.891-10.766M454.925 156.742s.85 7.65 9.35 12.466M471.075 163.4s1.564 6.72-5.241 11.05c-1.559.99-2.125 3.966-2.125 3.966M470.509 175.442s2.215 8.17 10.341 7.791c6.093-.282 6.659-6.516 6.659-6.516M471.075 145.267s8.077 4.391 6.518 10.91M485.809 140.167s6.516 10.91-2.125 14.734M489.493 155.183s4.605 6.838 2.266 11.05c-3.541 6.375-8.502 1.417-10.059 3.117M497.141 169.492c-.282 2.266 6.152 7.135 6.8 10.91.85 4.956-3.259 14.306-14.45 6.374"/><path stroke-width="2.04" d="M493.884 189.75c-.568 3.54 4.411 7.109-.425 10.908-5.95 4.675-12.043-4.958-12.043-4.958M494.875 199.24c.709 1.843 2.834 2.126 2.834 2.126M506.491 190.458s6.093 2.408 4.675 9.492c-.755 3.77-3.674 4.513-6.22 4.392-2.2-.103-4.121-.851-4.121-.851M515.559 193.858s5.24.849 4.532-7.933M503.802 160.85s4.251 3.4 3.259 6.8c-.993 3.4-2.552 3.825-2.693 5.95M448.27 175.44s.567 5.242-2.125 8.5M476.177 182.1s3.257 5.1.85 10.058-7.082 9.35-7.082 9.35M467.536 204.766s.284 7.508-8.641 8.358M469.802 213.55s8.136 7.916 16.15.14c4.817-4.674 3.259-10.908 3.259-10.908M504.653 204.908c-.425 3.258 2.751 7.708.142 11.758-4.11 6.375-13.742 4.534-13.742 4.534M487.794 211.283s7.083 11.9 2.267 16.575"/><path stroke-width="2.04" d="M491.903 224.175s3.542 1.983 2.125 5.383c-4.396 10.556-14.45 3.117-14.45 3.117M484.253 235.366s.14 4.817-4.817 7.933M466.12 236.925s.848 6.373 9.49 8.216"/><path stroke-width="2.04" d="M494.028 229.558s4.392 9.775 11.9 9.35c5.908-.333 7.65-6.517 7.65-6.517M510.886 223.608s4.418 7.538 10.767 2.267c6.658-5.525.991-12.75.991-12.75"/><path stroke-width="2.04" d="M513.72 206.75s1.698 6.94 11.19 6.233c9.493-.707 3.54-12.042 3.54-12.042M523.778 223.75s2.267 9.35 8.358 9.066c6.09-.284 8.925-7.084 8.925-7.084M532.844 232.957s-.425 13.317-9.916 12.892c-9.59-.43-10.625-10.908-10.625-10.908"/><path stroke-width="2.04" d="M521.653 245.425s2.406 13.516-8.642 13.316c-7.791-.141-10.908-9.066-10.908-9.066M504.37 238.907s.283 11.617-5.526 13.884M475.325 255.837s4.037 9.35 9.775 8.288c5.737-1.063 6.162-7.013 6.162-7.013M493.387 262.85s3.825 7.862 8.075 7.012c4.25-.85 5.313-10.2 5.313-10.2M506.137 265.4s1.275.425 1.913 2.975c.637 2.55 4.037 7.225 7.437 6.8M521.65 260.3s2.762 6.162 1.275 10.837M523.209 264.692s4.153 4.036 8.075 2.266c8.784-3.966 1.136-14.875 1.843-17.85M534.543 254.067s10.837 5.17 7.437-10.13M504.652 275.175s.743 9.49-8.36 9.775c-4.533.14-5.808-2.268-5.808-2.268M484.391 264.408c-.141 2.692 4.391 6.658 2.266 14.308-2.125 7.65-8.075 8.5-11.19 3.259M548.869 260.934s2.71 16.082-6.68 16.082c-4.25 0-5.807-6.375-5.807-6.375"/><path stroke-width="2.04" d="M537.798 274.325s-1.134 10.2-8.64 10.482c-5.393.202-5.95-5.95-5.95-5.95M523.914 282.257s-2.69 12.042-9.066 12.042"/><path stroke-width="2.04" d="M533.832 282.966s3.946 13.084 10.766 12.608c6.091-.425 8.32-9.312 8.32-9.312M490.2 287.925s.425 13.6-6.8 14.025c-7.225.425-7.225-6.7-7.225-7.65M492.962 290.687c1.383.32 2.8 6.562 6.695 7.12 6.693.955 5.843-6.8 8.288-7.97M511.875 278.682s-2.55 7.012 3.4 10.732"/><path stroke-width="2.04" d="M520.375 296.107s3.932 6.907 9.457 5.632c5.525-1.275 6.055-9.882 7.33-11.264"/><path stroke-width="2.04" d="M504.084 300.251c3.4 1.557 4.391 12.75 9.491 12.607 8.092-.226 9.066-13.74 9.066-13.74M489.35 305.492s.648 8.7 6.234 8.5c3.966-.14 5.1-5.1 6.941-6.94M534.543 301.101s.851 12.325 10.343 10.625c9.49-1.7 9.576-11.419 9.576-11.419"/><path stroke-width="2.04" d="M537.518 309.601c-1.982 3.682-1.003 8.476-4.391 10.625-5.81 3.682-10.484-1.134-10.484-1.134"/><path stroke-width="2.04" d="M534.402 319.233s-.71 13.318 8.075 12.893c8.784-.425 12.748-10.201 12.748-10.201"/><path stroke-width="2.04" d="M536.527 329.576c-1.7 2.691-2.125 7.791-6.375 9.491-5.034 2.015-10.624.849-12.891-9.634M537.377 342.892c-.71 3.541 1.557 9.493 6.94 9.21 5.385-.285 5.95-10.485 8.5-13.885"/><path stroke-width="2.04" d="M539.077 349.692s-3.541 8.216-10.2 7.791c-5.092-.324-4.11-7.789-7.51-10.907"/><path stroke-width="2.04" d="M532.702 356.633c.85 3.26-1.274 11.477-.566 14.593.707 3.116 5.525 4.25 8.64 3.4 5.8-1.582 7.224-16.859 7.224-16.859"/><path stroke-width="2.04" d="M532.136 371.226s-3.118 7.227-8.643 7.368c-5.525.141-6.516-5.809-6.516-5.809"/><path stroke-width="2.04" d="M518.252 376.185c-2.41 2.55-2.72 9.316-6.66 12.325-7.79 5.95-11.756-2.55-11.756-2.55M525.193 381.996s-2.171 15.332 6.518 15.725c6.232.282 10.2-6.8 13.175-11.05M523.918 351.537c-2.691 2.266-2.268 7.084-7.225 8.359-4.957 1.275-8.5-5.668-8.5-5.668"/><path stroke-width="2.04" d="M514.143 360.037c-2.266 3.966-.707 8.926-5.241 11.334-4.534 2.407-7.084-2.55-7.084-2.55M517.686 333.97c-5.81 3.117-6.092 9.774-9.775 11.758-3.684 1.984-6.943-2.975-6.943-2.975M501.818 344.596c-1.132 1.416-2.812 7.073-8.641 7.366-5.666.284-7.65-5.525-7.65-5.525M517.118 312.296c-.991 3.966 1.497 8.542-.85 12.607-3.682 6.375-11.9 1.843-11.9 1.843M515.986 297.278c-.71 3.4-2.693 4.25-2.834 9.066M500.118 310.453s-1.275 6.375 1.275 11.475M499.268 326.885s-1.061 6.659-6.232 6.659c-3.542 0-4.818-4.675-4.818-4.675M490.343 310.31c-1.982 3.118-1.132 7.934-5.807 10.2-4.749 2.302-9.026.318-10.484-8.216M471.218 261.86c.993 5.384.14 10.766 1.275 16.291 1.134 5.525 1.135 9.634.993 13.46-.143 3.824-.85 17.422-.425 19.265M471.218 317.11c.709 5.666-.99 12.043-.707 18.134.282 6.091 4.02 10.686 8.64 9.916 5.95-.991 8.926-8.641 8.926-8.641"/><path stroke-width="2.04" d="M482.41 344.026c-.85 4.532-.45 9.95-1.417 13.175-3.4 11.334-16.716 2.266-16.716 2.266M497.568 350.401c-1.982 4.818.566 10.768-3.825 15.584-4.391 4.816-11.757-1.134-11.757-1.134M484.393 367.401c-1.982 4.675 0 15.018-7.225 17-7.225 1.982-8.782-3.116-8.782-3.116"/><path stroke-width="2.04" d="M480.71 382.701s-.21 7.934 5.242 8.925c4.675.85 7.79-1.7 7.79-1.7M508.194 345.3s.71 6.942-4.25 10.908M510.6 389.64c.85 2.692-2.205 11.851 3.257 13.742 2.623.906 4.85.397 6.76-.655 3.454-1.905 5.864-5.588 7.69-5.861M520.616 402.729c1.6 3.63 2.027 10.854 5.284 14.113 3.257 3.26 6.941 2.55 8.782 1.275"/><path stroke-width="2.04" d="M523.632 412.875s1.843 8.075-10.34 9.49c-12.185 1.417-13.317-8.215-11.476-14.45"/><path stroke-width="2.04" d="M511.025 400.407c-2.409 2.268-2.834 4.676-7.509 6.943-4.675 2.266-15.866-2.693-12.041-12.468M499.691 373.633c-.566 2.55.85 7.793-2.975 10.06M474.616 389.219s.29 14.314-12.043 14.875c-9.35.425-7.225-13.743-7.225-13.743M456.482 400.551s-6.659 4.675-9.775-4.25M471.782 399.985s6.516 9.066 19.975 2.975"/><path stroke-width="2.04" d="M482.548 405.369c0 5.525-2.407 10.343-2.407 14.875s4.25 8.782 9.632 8.5c6.251-.326 13.034-9.493 13.034-9.493M480.141 420.244s-2.409 4.532-7.934 4.107c-5.525-.425-8.64-3.116-8.64-7.366 0-3.78 1.556-6.373 1.415-8.216"/><path stroke-width="2.04" d="M465.123 421.519s-6.232 5.807-12.607 3.966c-8.48-2.448-4.959-10.2-6.234-14.025M446.282 417.976s-3.823 3.827-10.766 1.418M438.632 420.526s-2.834 13.318-8.64 13.318c-3.517 0-6.068-3.18-6.235-5.95-.425-7.084 1.7-10.909 1.7-10.909"/><path stroke-width="2.04" d="M434.523 430.869s-2.125 5.664 1.7 8.357c3.825 2.693 11.358 2.89 15.725-3.116 2.266-3.116 3.543-8.784 4.818-10.059M452.798 435.967s.133 8.925 6.658 8.925c11.333 0 10.625-10.909 12.75-14.45 2.125-3.54 3.117-6.09 3.117-6.09"/><path stroke-width="2.04" d="M470.082 437.81s2.691 9.632 11.616 9.066c8.925-.566 9.21-10.766 9.21-10.766"/><path stroke-width="2.04" d="M489.491 441.635s3.1 6.016 10.766 4.391c9.35-1.982 10.06-11.9 10.06-11.9"/><path stroke-width="2.04" d="M509.748 437.101s2.559 6.037 6.8 4.11c4.675-2.126.143-4.678 5.81-10.91 5.665-6.232 6.233-7.932 6.233-7.932M518.248 439.935s.993 3.966 4.11 2.975M501.106 446.453c-2.267 4.391 1.982 11.334-5.1 15.725-7.083 4.391-12.467-.709-12.467-.709M482.69 447.303c-2.835 3.4-.113 10.001-4.96 13.882-1.416 1.134-4.107 2.693-8.216 1.843-3.61-.746-5.24-4.534-5.24-4.534"/><path stroke-width="2.04" d="M468.664 463.31c-.85 3.825-4.533 6.941-4.108 12.325.425 5.384 2.976 10.768 11.192 10.768 8.216 0 11.117-6.737 11.616-8.784 1.56-6.375-5.098-6.518 3.26-13.459M500.68 456.228s7.652 9.775 15.018-.284M466.54 443.053c-2.55 3.4-2.267 15.025-11.05 16.575-4.817.85-10.47-.218-12.75-5.668-1.563-3.736.08-10.244-1.418-12.607"/><path stroke-width="2.04" d="M451.38 459.91c-.566 3.543-5.074 6.067-4.533 14.734.425 6.8 6.084 8.298 8.358 8.5 6.375.566 9.35-5.1 9.35-5.1M417.737 424.987c-.637 4.25-7.65 8.925-7.437 14.663.153 4.124 3.825 10.2 11.9 9.562 8.075-.637 12.112-11.687 12.112-11.687M428.788 446.662c.212 3.613-2.55 7.013-2.125 11.263.425 4.25 7.225 10.625 18.275-.638"/><path stroke-width="2.04" d="M431.337 463.662c-.637 3.188-5.312 9.35-13.387 7.225s-8.713-8.287-7.438-11.262c1.275-2.975 6.375-4.675 7.438-10.625"/><path stroke-width="2.04" d="M396.275 444.75c-2.125 3.612-1.063 10.2 5.1 10.412 6.162.213 8.713 6.163 8.713 6.163"/><path stroke-width="2.04" d="M399.462 455.375c0 2.55-3.036 12.022-8.925 13.387-14.662 3.4-10.837-14.237-10.837-14.237"/><path stroke-width="2.04" d="M393.087 468.125c2.125 4.25-.183 6.075 2.125 11.05 2.763 5.95 12.325 3.187 12.325 3.187M411.362 476.2c.425 3.825-2.55 5.737-2.55 8.712 0 2.975 1.156 7.373 6.8 6.163 8.925-1.913 15.725-12.75 15.725-12.75M429.637 468.125c-1.062 5.312-.637 10.412 3.188 9.775M430.913 480.024s-.216 4.177 4.675 4.038c7.437-.212 11.687-5.737 11.687-5.737M434.1 484.062s-3.188 10.838-12.537 12.112"/><path stroke-width="2.04" d="M430.7 490.65s-1.488 11.05 5.737 11.9c7.225.85 8.288-2.763 10.413-2.976M452.8 498.512s1.912 6.375 8.287 5.525c6.375-.85 10.2-7.862 10.2-7.862M453.225 483s-2.975 3.612-2.55 8.075M475.748 486.403s-2.123 2.972-.848 6.584M504.012 466.212s-8.287 15.512-17.425 24.012M378.425 461.75c-1.275 4.037-9.138 7.862-9.563 12.537M371.413 481.937s4.64 6.899 14.45 4.037c5.1-1.487 5.525-7.65 5.525-7.65M385.012 486.4s-2.922 6.375.425 10.837c3.188 4.25 7.863 6.162 13.388 4.887 5.525-1.275 15.725-10.2 15.725-10.2M397.975 502.55s-12.311 3.765-16.15 7.437c-4.887 4.675-7.437 11.9-2.125 17.638 5.313 5.737 10.413 3.4 10.413 3.4M406.688 518.062s-1.913 8.287-9.35 11.475M401.163 527.837s-2.55 3.825-.85 7.862M405.2 542.5s2.55-2.125 6.587-2.338c4.038-.212 4.038 1.063 6.8 1.063M399.887 502.125s-2.55 5.312-.212 10.2c2.14 4.476 9.35 5.95 16.787 3.825 7.438-2.125 4.25-8.288 4.25-8.288M419.438 514.662s1.912 9.35 9.987 10.838M433.462 501.062s-5.525 2.125-7.012 6.8M448.125 508.5s-4.216 6.137-2.337 9.562c3.612 6.587 10.837 3.825 10.837 3.825M445.788 518.062s-2.125 6.587-10.625 7.65M439.625 524.225s-5.95 5.1-4.888 9.562M379.275 535.062s-5.95 13.387 5.1 17.212M378 546.112s3.825 2.55 7.862 1.063M365.675 494.687s-4.038 19.125 11.262 22.525M359.512 476.625s-14.45 14.45 5.313 21.25M346.337 490.862s-21.675 11.9 2.763 25.288M364.825 502.337s-13.388 8.075-12.75 12.75M356.538 518.487s5.95 3.188 12.962-4.462M360.15 518.7s-1.063 5.1-8.925 3.187M329.975 483.212s3.188 9.775 12.325 10.625"/><path stroke-width="2.04" d="M332.313 487.462s-16.363 4.675-15.938 16.363c.233 6.375 9.775 9.987 9.775 9.987M337.625 505.524C329.125 509.35 323.6 517 323.6 517M346.762 519.125s-.637 4.887 3.613 8.287c4.25 3.4 8.712 4.675 8.712 4.675M362.275 528.475s-22.1 22.1 8.925 21.675M341.875 527.2s-17.425 9.775-1.063 19.55M352.288 546.537c-.425 2.762-7.225 6.162-7.438 13.175-.156 5.168 7.862 11.688 23.162 10.625M371.413 553.55c0 1.7-3.613 4.887-2.338 9.35 1.275 4.462 5.95 6.375 17.638 3.612M371.625 460.262c-1.7 2.975-9.775 4.463-11.05 10.413"/><path stroke-width="2.04" d="M318.712 474.712s-10.551 5.595-9.35 15.512c.85 7.013 8.5 7.65 8.5 7.65M315.95 504.887s-13.813 6.163-13.388 15.088c.425 8.925 15.3 10.412 15.3 10.412"/><path stroke-width="2.04" d="M313.612 529.962c-.85 2.55-6.587 9.563-4.25 14.662 2.338 5.1 7.013 8.5 14.238 7.438 7.225-1.063 9.35-3.4 9.35-3.4M323.884 520.54s1.7 13.035 11.05 14.168M294.416 478.325c-1.416 2.266-3.114 5.948-2.832 8.216.282 2.267 2.125 10.767 17.779 3.684M298.1 493.625c-1.418 2.832-5.974 7.568-6.234 11.616-.566 8.784 13.034 7.366 13.034 7.366"/><path stroke-width="2.04" d="M292.432 508.357s-13.457 2.976-14.166 10.768c-.717 7.905 4.534 11.614 11.616 12.182M303.059 521.108c-2.55 3.683-7.791 4.25-10.909 10.767-3.116 6.516 3.543 16.433 17.212 12.75M291.866 485.125s-15.961.593-17.85 8.5c-2.266 9.49 9.634 13.6 9.634 13.6M269.625 485.69s1.841 4.677 5.95 4.818M277.132 504.39s-15.723 1.56-17.709 12.326c-1.467 7.96 8.784 12.75 8.784 12.75M278.266 524.083s-3.825 1.415-5.525 3.258M326.293 551.708s-2.125 2.408-1.56 6.233c.77 5.195 7.085 13.885 21.25 6.517"/><path stroke-width="2.04" d="M331.675 566.725s-4.391 6.233-12.182 6.8c-7.368.533-10.2-1.984-10.2-1.984M324.168 572.958s4.816 6.234 18.982 5.1c14.166-1.133 19.125-7.508 19.125-7.508M315.527 551.283c-2.975 4.958-11.191 5.525-11.616 12.042-.133 2.024 1.982 4.533 1.982 4.533M303.343 563.04s-7.225 3.4-11.9 1.985c-3.664-1.109-7.791-4.533-7.65-9.917.115-4.397 3.259-7.225 3.825-10.2M293.002 565.875c-2.266 2.55-6.688 3.818-6.375 9.35.425 7.508 13.459 4.533 13.459 4.533"/><path stroke-width="2.04" d="M286.768 576.925c-4.534.566-6.375 2.267-10.91 1.558-4.531-.708-13.968-7.473-12.04-15.442 2.125-8.784 13.6-13.458 13.6-13.458"/><path stroke-width="2.04" d="M271.468 531.166c0 1.84-4.25 3.683-3.684 9.066 1.379 13.07 14.734 7.509 14.734 7.509M257.868 484.557s8.216 1.7 10.2 8.925M267.502 476.482s-4.675 2.835-2.834 11.193M253.76 489.09s-9.371 2.962-9.208 13.035c.143 8.64 10.909 7.225 16.009 9.775M241.293 477.475s-2.691-2.41-4.675-1.984c-1.984.425-6.234 3.116-2.266 9.916 2.281 3.91 8.782 3.118 11.19 3.543M224.86 487.532s-4.057 2.648-3.966 8.5c.142 9.209 11.192 11.193 11.192 11.193M240.16 513.6s-6.233 2.689-5.1 8.357M243.418 519.407s1.7 5.382 7.79 8.075c6.094 2.693 10.344 3.825 12.469 5.95M235.768 523.233s-2.41 1.558-1.7 4.533c.709 2.975 12.89 6.801 14.59 8.642M251.068 536.975s-8.641 2.69-8.641 10.34 10.057 12.468 14.166 9.21M227.127 528.758s-7.225 1.417-7.51 9.917c-.196 5.946 9.776 10.908 9.776 10.908"/><path stroke-width="2.04" d="M242.427 547.316c-3.116 2.125-6.091 1.417-10.91 1.842-4.815.425-14.108 2.9-15.156 8.784-1.418 7.933 4.107 11.758 4.107 11.758M215.368 509.35s-6.66 2.408-6.234 8.358c.425 5.95 11.618 10.343 12.325 15.16M244.127 560.774s-6.516 5.527-.566 15.868M243.986 570.125s2.408 3.685 7.083 4.392M225.143 566.158s6.94 6.377 16.434 7.084"/><path stroke-width="2.04" d="M216.502 514.308s5.382-.425 9.916 2.41c4.534 2.833 4.25 5.951 7.934 7.933M249.936 526.917s-5.384 0-9.35-1.984M202.052 493.483s-4.816 4.252-2.975 9.493c1.84 5.241 9.916 7.793 10.625 11.05M218.486 469.967s-10.768 1.134-12.61 8.36c-1.84 7.224 5.526 12.89 5.526 12.89M215.368 490.508s4.534 1.842 5.666 7.65M183.068 483.426s-6.197 4.062-2.834 12.466c2.268 5.666 10.059 3.824 16.434 9.916M199.218 459.482c-1.134 2.693-8.925.99-11.191 4.675-2.268 3.684-4.952 7.963.99 15.018 4.535 5.382 8.926 1.7 9.776 7.65M194.4 511.476s5.95-2.127 13.459.282M187.6 515.017s-3.169 2.737-2.834 7.366c.709 9.775 17.85 11.05 17.85 11.05"/><path stroke-width="2.04" d="M215.225 526.351c-2.266 3.825-13.741 3.26-14.309 12.75-.566 9.491 14.309 15.866 15.3 17.991M178.391 534.001s-.568 4.96 2.691 7.934c3.26 2.975 10.2 8.357 10.06 10.766M194.682 551.426s-5.525.71-5.666 6.234M169.466 547.176s22.525 13.177 40.375 18.418M185.334 525.219s-3.4 1.132-4.816 3.116M169.466 505.385s-5.666 8.073 2.691 18.416M162.384 518.276s4.391-1.418 6.8 1.275M178.393 501.133s6.94.143 12.609 6.518M161.109 487.958c.566.143 9.634 3.118 13.459 9.21M165.359 484.701s2.266 4.815 9.209 8.357M166.209 463.876s-8.216 1.274-3.966 13.882M171.309 445.033s-4.393 2.55-2.409 9.775c1.984 7.225 14.025 5.242 16.575 14.45M168.475 462.033s3.4-2.264 8.216-.707M156.434 481.442s-5.384 11.616 10.341 23.091M140.85 469.401s-9.066 9.065 13.316 25.782M148.5 496.601s5.1-3.825 10.484 0M142.693 498.017s-3.26 11.902 11.05 19.41M154.168 520.117s-2.834 11.474 13.6 21.391"/><path stroke-width="2.04" d="M130.793 484.276s-9.702-2.254-7.51 8.216c3.119 14.875 20.544 16.01 20.544 16.01M132.35 508.642s-14.732 1.134-4.391 17.284M142.409 528.901s-6.941.425-3.825 7.791M110.675 466.282s-4.959.709-4.675 7.084c.284 6.375 8.784 6.658 11.475 13.6M106.425 438.798s-6.234 1.7-5.809 8.216c.425 6.516 9.775 8.923 14.45 18.416M92.543 443.189s5.807-1.277 7.79 3.116M81.634 445.173s-2.266 10.2 10.2 20.966M89.566 469.823s-5.091 1.982-4.675 6.232c.709 7.225 14.168 13.743 16.859 19.834M106.991 491.923s-5.809 4.534-2.975 11.193c2.877 6.764 10.2 5.242 13.884 13.175M122.434 452.257c-.85 3.4-1.416 10.626 12.184 21.534M157 428.6s-5.95 1.133-7.084 8.925M135.325 419.675s-7.509 1.7-7.791 10.2M123.425 395.733s-4.534.991-3.541 6.941c.991 5.95 7.225 8.077 11.191 12.61M116.057 409.758s-12.184-1.84-14.309 11.475M91.832 410.183s16.15 23.092 24.934 32.867M121.016 445.316s11.23 17.532 21.109 20.825c3.825 1.275 5.807-2.267 5.807-2.267M147.932 468.975s-2.834 4.957 5.666 12.89M80.075 425.06s3.4 3.966 7.084 1.416M84.891 427.61s-1.134 3.54 3.966 9.632M63.357 428.317s1.275 3.825 5.241 4.11M66.475 402.251s-1.7 15.302 9.209 23.66"/><path stroke-width="2.04" d="M60.525 411.742s-10.333-22.474 1.134-25.216c6.516-1.559 12.182 6.66 12.182 6.66M78.657 398.71s5.525 1.132 7.084 6.657c1.557 5.525 2.266 8.927 4.816 12.893M50.891 409.335s-2.125 6.516 1.275 15.016M62.791 439.792s2.832 9.068 9.916 15.443M105.15 386.244s-7.082.568-4.816 11.05M114.5 386.526c.284-3.116-3.925-8.95-3.259-14.735.85-7.366 8.925-1.697 8.925-1.697"/><path stroke-width="2.04" d="M96.65 355.216s-.141 3.825 3.4 6.233c3.541 2.41 9.066 2.408 11.616 8.642M97.357 359.608s-9.074 2.984-5.95 16.008c.85 3.542 5.81 6.66 6.091 9.067M91.407 377.316S78.8 381.14 84.041 394.6M90.982 349.973s-4.109-6.518-10.484-5.384c-6.375 1.134-10.625 10.057-9.35 20.4M76.957 367.114s-9.209-7.507-12.184 6.659M72 373.489s3.684 9.35 10.766 12.75M56.841 399.982s-5.1-10.2-14.45-8.925C33.041 392.332 38 406.075 38 406.075M41.541 390.773s-6.659-21.393 3.684-23.66c10.341-2.265 16.432 18.844 16.432 18.844"/><path stroke-width="2.04" d="M47.209 366.123s-1.654-16.28 9.775-17.71c6.8-.85 14.166 10.344 14.166 10.344"/><path stroke-width="2.04" d="M47.918 355.498s-3.886-11.961-10.341-11.193c-2.41.287-5.241 18.843 1.7 32.584M61.8 348.912c1.275-2.762-4.585-13.65-1.275-18.062 5.1-6.8 14.238.85 14.238.85M77.1 336.587c3.187-1.062 2.863-7.176 10.837-9.35 4.675-1.275 8.5 2.125 8.5 2.125M91.975 308.75s-4.888 10.2.637 18.487M106.212 334.037s-1.346-1.557-4.746-.495c-3.4 1.063-6.516 10.483-6.516 10.483M84.75 313s-3.188-6.588-10.412-4.888c-7.225 1.7-4.675 12.963-5.95 16.363M69.662 311.937s-3.825-6.375-11.475-4.25M64.563 301.737s-1.26-15.422 8.712-17.85c5.525-1.345 11.688 16.788 11.688 16.788M82.2 293.026s.85-5.1 11.05-11.9M89 283.108s0-8.782 2.55-12.182c2.55-3.4 7.65-5.95 7.65-5.95"/><path stroke-width="2.04" d="M59.532 333.826s-5.95-8.923-9.775-9.49c-3.825-.569-8.075 7.65-8.64 9.35-.569 1.7-.426 11.615-.426 11.615M24.541 344.026s-2.409-15.584 10.2-20.684"/><path stroke-width="2.04" d="M26.384 330.001s-.425-17.568 8.075-23.659c8.5-6.09 15.584 7.366 17 10.2 1.416 2.834.284 8.643.284 8.643M50.041 313.992s1.275-5.525 6.234-9.49M49.05 303.792s-3.825-20.682-9.35-21.675c-5.31-.955-12.325 13.46-12.325 13.46"/><path stroke-width="2.04" d="M46.359 292.176s4.816-11.759 9.209-12.04c5.979-.385 6.94 8.215 6.94 8.215M66.616 288.917s-5.525-6.093-8.925 11.05M27.358 298.02c1.505.885 3.488 3.363 5.4 9.738M73.275 283.887s-.532-17.957 8.925-19.762c4.462-.852 9.35 6.801 9.35 6.801"/><path stroke-width="2.04" d="M58.932 276.77s2.55-14.026 8.5-15.088c5.95-1.063 8.82 8.075 8.82 8.075"/><path stroke-width="2.04" d="M61.482 268.27s-4.845-7.484-8.182-7.438c-7.65.105-10.943 23.482-10.943 23.482"/><path stroke-width="2.04" d="M28.65 277.158s1.382-15.371 7.438-15.371c6.057 0 8.712 11.582 8.712 11.582M51.387 261.044s3.766-17.646 11.688-17.107c4.675.32 4.675 8.607 4.675 8.607M63.925 264.125s4.806-17.813 14.875-18.7c3.613-.32 4.888 7.967 4.888 7.967"/><path stroke-width="2.04" d="M80.82 264.232s1.31-16.234 13.175-20.082c3.932-1.275 6.27 7.757 6.27 7.757M96.225 263.382s2.55 1.062 5.95-7.757M106.637 253.287s.958 14.45-5.737 17.32M38.32 258.494c1.7-2.125.637-7.225 2.55-10.412 1.912-3.188 3.294-5.632 7.65-5.845 4.357-.212 3.507 6.375 3.507 6.375M52.238 239.687c1.7-2.762.85-7.862 2.87-11.262 2.017-3.4 2.655-4.57 4.887-4.57 2.23 0 6.055 4.462 5.418 13.175M67.857 231.612c2.657-3.082 3.932-9.137 8.713-8.5 4.782.638 9.562 6.8 8.925 12.22-.638 5.418-4.143 4.675-4.993 7.862"/><path stroke-width="2.04" d="M84.537 230.125s3.825-7.863 8.713-9.245c4.887-1.38 5.737 4.037 5.737 4.037M98.563 243.194c3.507-3.507 4.25-13.494 4.25-13.494M101.75 236.5s.32-1.913 3.72-3.508M44.27 225.557s7.12-1.275 9.244 9.882M59.995 223.857c3.825-3.613 2.444-13.707 9.032-15.938 6.587-2.232 10.412 7.543 10.412 7.543"/><path stroke-width="2.04" d="M42.782 221.52c3.507-4.146 6.482-15.726 11.37-16.15 4.887-.426 9.03 12.217 9.03 12.217M67.007 208.45c3.4-4.676 4.056-19.65 14.77-19.02 3.612.212 5.737 4.037 5.737 4.037M51.175 200.482c3.72-3.4 7.798-14.583 14.345-13.813 1.805.213 4.25 3.93 4.25 3.93"/><path stroke-width="2.04" d="M81.775 189.432c2.232-1.275 9.882-12.645 16.045-15.3 6.162-2.657 7.862-1.913 7.862-1.913M99.732 179.444s-2.02 9.032-7.225 13.813M85.92 197.72s2.232 7.012-3.083 14.45M98.67 210.575c.425-.213 8.464-1.7 8.607-11.9.105-7.65-10.202-5.845-10.202-5.845M107.7 196.444s6.695.107 10.412-8.925M115.457 192.62s3.188-3.72 8.5-1.063M106.107 204.52c.32 4.781 2.55 9.881 2.55 9.881M66.688 181.357s9.35-11.263 17.85-12.432M86.238 173.92s.532 5.312-4.038 10.519c-4.57 5.205-4.145 4.355-4.887 5.95M79.225 170.307c.32 0 7.225-6.375 7.545-15.832"/><path stroke-width="2.04" d="M88.47 165.737s10.776-7.89 13.812-17c1.382-4.145 2.975-8.712 1.275-9.137-2.263-.567-14.812 6.22-23.8 14.342-5.525 4.995-8.712 4.358-8.712 4.358M100.262 158.087s5.95-7.013 12.113-9.67c6.162-2.655 4.037 2.232 4.037 2.232M109.082 168.712c4.357-3.4 3.845-10.389 9.138-15.195 8.075-7.33 13.282-16.468 13.282-16.468M108.02 135.882s5.207 1.912 5.632 6.587M117.262 162.55s6.687.132 13.92-7.97c2.656-2.975 2.338-9.243 2.338-9.243M132.882 152.35s2.55-3.613 7.863-4.25M130.97 155.857s7.757 4.037 16.47-2.87M138.938 157.45s2.657.424 2.125 4.57M125.02 160.107c0 .32 5.096 8.777-5.313 16.044-5.632 3.93-8.395 3.93-11.05 6.056M104.3 178.487s.957 4.675-2.232 8.82M118.75 176.894s-.745 2.87 1.063 6.27M135.325 166.162s-1.595 4.145-8.82 7.97M120.238 123.875s-4.995 1.807-7.863 6.057c-2.87 4.25-9.67 6.055-9.67 6.055M110.782 124.087s4.357 2.02 1.17 6.587M120.875 137.687s10.732-9.775 4.462-14.77"/><path stroke-width="2.04" d="M127.037 125.257s7.013 5.737 17.32 1.062c10.305-4.675 8.5-8.5 18.488-12.645M172.3 101.882s-3.4 3.932-13.387 7.757c-9.988 3.825-11.583 5.63-14.77 8.393-2.213 1.919-7.438 1.487-7.438 1.487M132.67 104.432s15.512-5.1 13.387 12.112M161.995 95.72c-3.72 1.487-4.463-1.17-8.395-.745-3.93.425-7.543 3.507-7.543 3.507M163.27 86.37s12.22-2.976 12.857.956c.637 3.93-6.375 4.463-5.207 7.756M179.845 88.175s7.544 5.632-3.188 13.707M169.325 111.87s3.932-6.588 10.2-7.545c6.27-.956 11.9-1.168 10.625-7.863M192.275 102.307s-.213-3.825 3.825-5.1M186.22 109.32s-1.037 7.984-16.045 14.45c-6.905 2.974-15.088 2.124-25.075 7.331M188.77 117.82s7.97.424 14.237-9.35M198.97 113.675s-2.55 9.457 10.625 7.544M212.57 108.574s3.825 2.763 13.812-2.444M219.262 97.95c-2.657 3.507-9.987.212-21.462 6.8M210.87 100.712s-4.145 2.125-5.845 6.8M222.238 108.257s6.587 3.932 0 9.775M229.782 107.725s7.97-3.083 10.307 1.382c2.338 4.462.106 5.205-.637 6.693M242.743 97.737s-1.158 4.24 2.232 6.375c4.888 3.082 11.688-2.337 11.688-2.337M250.82 104.75s3.932 3.932-.213 10.732M254.007 103.582s13.07-.745 12.325 10.52M272.813 101.562s-1.7 2.657-.745 5.632c.957 2.975 6.482 2.868 7.332 5.843M241.043 91.682s-8.82 1.062-7.225 14.982M237.007 106.875s-.532-5.525 5.738-5.208M204.175 87.432s-.957 6.27 3.295 6.8c1.062.132 2.378.275 3.106-.238 2.18-1.539 2.524-5.5 2.524-5.5M215.12 88.387s-.694 1.819-.15 3.72c.252.878.768 2.453 1.744 2.655 2.941.609 5.1-5.843 5.1-5.843M195.462 86.37s-1.166 6.13 2.975 6.269c.74.024 1.005-.592 1.527-.996 1.737-1.347 2.723-3.999 2.723-3.999M186.113 84.774s-.527 5.357 2.762 5.633c2.55.212 4.25-4.145 4.25-4.145M258.15 63.951s4.109-.99 4.816-5.95M290.025 74.292s.709 4.534 5.809 5.241c5.1.71 8.075-.423 11.9 2.693M251.634 66.5s.709 3.116 3.825 3.116M382.25 96.675s1.7.85 2.762 2.975M348.038 83.287s.85 2.125 2.337 3.825M411.362 164.462s15.639 14.521 25.5 27.2c2.975 3.825 6.588 7.012 7.65 9.562 1.063 2.55 5.738 5.313 8.288 11.475 2.55 6.163 7.225 12.75 8.712 18.488 1.488 5.737 5.1 11.475 5.738 14.025.637 2.55 5.1 17.637 4.887 25.287M470.65 324.687c-1.488 2.762-5.443 6.555-7.65 12.325-2.762 7.225-.85 16.787-.85 16.787"/><path stroke-width="2.04" d="M468.1 338.5c-.637 1.7-1.063 8.287-3.188 12.112-2.124 3.825-4.887 6.587-5.312 9.563M459.175 363.15s-1.063 3.4-2.338 5.737c-1.275 2.338-4.25 6.8-3.612 9.563M452.587 379.3s-5.1-1.7-9.137-7.863c-4.037-6.162-1.488-6.375-8.287-12.75-6.8-6.375-5.526-8.712-7.65-8.075-2.125.638-4.604-.78-3.613-2.196.991-1.416 2.834-1.558 4.675-2.833 1.841-1.275 2.127-2.833 3.684-2.408"/><path stroke-width="2.04" d="M422.943 337.862s-3.152.921-2.02 4.746c1.134 3.825 5.668 3.967 5.668 3.967"/><path stroke-width="2.04" d="M430.984 340.625c-.568-2.125-.002-3.967-2.268-4.675-2.266-.71-5.666 2.551-7.366 2.408-1.7-.142-3.827-1.133-3.684-2.833.143-1.7 6.8-3.258 9.209-5.242s2.55-2.266 4.675-2.125c2.125.141 7.223 2.408 8.216 6.516.993 4.11 2.552 9.917 4.393 11.9 1.841 1.984 4.107 9.349 6.8 12.467 2.693 3.117 5.241 6.8 7.791 6.233M462.434 338.075s-.002-11.474-2.409-16.717c-2.407-5.242-5.204-14.805-10.907-18.133-3.4-1.984-5.88-1.488-5.88-1.488M447.134 298.266s-2.973 3.683-5.666 3.683c-2.693 0-2.586-3.612-4.286-4.037-1.7-.425-1.487-2.763-1.487-2.763"/><path stroke-width="2.04" d="M440.05 292.175s-1.957.12-3.116 1.275c-1.396 1.39-2.108 3.876-3.116 4.108-1.843.425-4.536-3.966-4.393-6.375.143-2.408 8.075-11.476 13.459-9.917 5.384 1.559 8.784 5.384 12.325 7.509 3.541 2.125 6.72 7.774 8.359 13.6 2.55 9.066 9.916 11.9 9.916 11.9M447.7 376.112s-.213 4.25-1.488 7.225c-1.275 2.975-3.187 7.65-3.4 10.838-.212 3.187-8.925 15.087-12.112 17.85-3.188 2.762-10.838 9.775-14.238 14.025-3.4 4.25-11.687 13.6-15.3 15.512-3.612 1.913-14.71 8.214-23.162 14.025-3.4 2.338-6.163 2.763-10.838 5.1-4.675 2.338-4.675-.425-9.562 1.275-4.888 1.7-8.075 5.738-8.075 5.738s-5.525.85-14.875 2.337c-9.35 1.488-11.263 3.188-13.813 4.463-2.55 1.275-3.825-.638-13.175-.213-9.35.425-15.937 1.063-22.525 2.125-6.587 1.063-14.875-1.275-22.737-2.125-7.863-.85-27.2-2.762-32.513-5.95-5.312-3.187-10.2-5.312-19.337-7.65-9.138-2.337-12.963-8.712-24.225-13.387-11.263-4.675-23.375-20.613-30.175-25.5-6.8-4.888-35.913-35.275-46.75-88.825-2.373-11.73-7.863-31.238-6.588-38.675 1.275-7.438 1.913-26.988 1.913-26.988M107.7 248.187c.85-6.375 2.337-21.037 10.2-34.637 7.862-13.6 12.537-31.45 28.475-49.3 15.938-17.85 31.238-28.475 42.712-35.063"/><path stroke-width="2.04" d="M179.035 83.258s-15.66 1.518-30.535 7.68c-14.875 6.163-19.055 8.285-27.2 15.088-6.92 5.779-23.154 18.09-38.463 37.4-11.794 14.875-31.025 40.163-37.825 59.288-6.8 19.125-9.574 26.938-12.75 42.5-2.125 10.412-4.25 33.575-5.312 41.862-1.063 8.288-4.25 16.788-4.25 38.463s4.037 45.262 10.2 66.725c6.016 20.957 15.303 36.09 22.312 51.425 6.8 14.875 19.763 43.137 35.275 55.675 15.513 12.537 25.925 28.475 56.313 42.5 30.387 14.025 46.051 22.63 91.375 35.062 14.719 4.038 41.244 6.676 62.687 5.738 24.225-1.063 34.854-4.706 34.854-4.706M40.975 228.212s-2.468.126-6.547 7.713M347.975 577.423s23.225 1.202 54.037-16.648c30.813-17.85 42.288-23.375 65.025-43.988 22.738-20.612 35.913-35.275 48.238-57.8 12.325-22.525 31.438-60.809 33.788-83.512.95-9.177 5.482-24.987 6.162-53.55.637-26.775-5.54-57.245-11.262-86.7-7.225-37.188-36.933-72.118-43.988-82.238-9.775-14.025-43.287-41.123-62.688-50.575-8.287-4.037-13.917-7.755-13.917-7.755S417.632 92 406.795 84.35c-10.838-7.65-31.025-10.838-31.025-10.838M170.175 123.77s6.108 3.518 5.737 8.819M147.12 147.782c3.082-1.17 5.312-5.632 10.307-8.288M159.02 142.894s1.807-2.657 7.65-4.887M96.012 286.437s4.27 2.115 8.191-7.655M226.912 101.35s9.704-2.77 6.127-11.266"/><path stroke-width="2.04" d="M226.714 425.762c-.033-1.353-.14-1.924 1.261-3.325 1.487-1.488 8.145.898 11.475.284 4.995-.921 9.583-4.653 12.485-5.119 3.985-.637 8.447-4.727 11.952-4.197M195.287 452.134s6.34-5.472 14.84-8.022 13.175-4.887 15.512-12.112M266.543 409.582c-2.438 2.437-3.465 4.74-4.675 5.95M267.607 406.82c2.763-.745 6.815.6 4.837 5.834-.915 2.419-2.605 1.603-4.944 5.428"/><path stroke-width="2.04" d="M272.712 408.723s2.105-2.631 6.475-1.266c1.376.43 1.593 1.7 1.593 1.7s1.753-.585 2.657.318c1.753 1.754 0 9.244-2.125 11.37-2.125 2.124-8.129 3.877-11.157 6.904-3.027 3.03-9.9 4.57-16.468 4.57-2.337 0-3.294 1.063-3.294 1.063"/><path stroke-width="2.04" d="M252.13 432.5s-.143 2.262-2.8 3.644c-2.655 1.38-2.762 4.143-3.612 7.438-.85 3.293-.981 7.26-4.356 12.325-2.123 3.184-4.248 5.302-6.111 6.827M282.521 476.664c3.132-3.134 4.247-11.086 6.795-16.045 2.55-4.959 5.668-10.482 5.668-12.466s-1.204-3.614 3.541-8.359 6.659-3.257 13.034-7.791c6.375-4.534 6.09-5.1 5.382-9.35-.707-4.25 2.268-5.809 2.268-5.809 1.134 0 4.673.85 5.454 3.825.78 2.975 2.055 2.904 2.055 4.25s-1.63 3.896-1.63 4.887"/><path stroke-width="2.04" d="M331.604 420.312c-.886-.886-.92-3.046-.92-3.046-.495-2.479-2.55-2.197-4.534-1.7-1.984.496-2.873 2.893-2.873 2.893M330.896 416.274s2.163.177 2.834 1.842"/><path stroke-width="2.04" d="M332.99 417.116s-.181-3.815 3.431-3.815c3.613 0 1.984 1.345 1.984 3.966 0 2.622 3.116 2.124 3.116 5.241 0 3.118.094 2.452-6.446 8.997-3.364 3.364-12.466 10.695-15.229 12.466-2.762 1.771-7.58 4.746-7.58 4.746"/><path stroke-width="2.04" d="M333.163 423.075s2.27-.546 2.762.744c.85 2.23-.85 7.684-.85 7.684M314.462 445.6s-2.16 2.585-2.16 6.41 2.444 7.485 2.693 10.448c.287 3.474.07 5.514-.308 6.914"/><path fill="#000" stroke="none" d="M282.883 64.44s-2.562 4.042-5.183 4.61c-2.62.566-.637 1.7-.637 1.7s6.371.634 7.859-3.829"/></g></svg>